<svg xmlns="http://www.w3.org/2000/svg" viewBox="0 -0.2664 24.67 19.47">
  <path d="M 0 5.76 L 2.64 5.76 L 2.64 7.92 L 0 7.92 M 0 8.64 L 2.64 8.64 L 2.64 11.52 L 5.28 8.64 L 7.92 8.64 L 5.28 11.52 L 10.56 18.72 L 7.92 18.72 L 3.96 12.96 L 2.64 14.4 L 2.64 18.72 L 0 18.72 M 5.808 7.92 L 8.448 7.92 L 10.56 5.76 L 7.92 5.76 L 7.92 5.76 M 13.2 8.64 L 13.2 18.72 L 18.48 18.72 L 18.48 17.76 L 16.72 17.76 L 16.72 15.84 L 15.84 15.84 L 20.68 15.36 L 22.44 15.36 L 22.44 17.28 C 25.52 16.32 25.08 8.64 23.1 8.64 L 13.2 8.64 L 15.84 8.64 L 18.48 8.64 C 23.76 8.64 22.88 15.36 20.68 15.36 L 15.84 15.84 L 15.84 8.64 M 13.2 5.76 L 18.48 5.76 C 19.8 5.76 22.44 7.2 22.704 7.92 L 13.2 7.92 M 11.22 7.92 A 1.44 1.32 90 0 0 12.54 6.48 A 1.44 1.32 90 0 0 11.22 6.48 A 1.44 1.32 90 0 0 11.22 7.92 M 11.0141 9.324 C 10.8777 11.1706 10.9014 14.5843 11.0906 14.9083 C 11.2482 15.2525 11.8633 15.3782 11.9108 14.8147 C 12.0067 14.3107 11.7506 10.8259 11.781 9.3038 C 11.7207 8.857 11.0343 8.9011 11.0167 9.3254 M 12.5585 4.6109 C 13.8112 3.0038 15.085 1.1981 16.76 -0.2664 C 18.2846 0.085 19.466 1.4141 19.5862 3.8275 C 17.4068 4.487 15.0784 4.6339 12.9175 5.1984 C 12.6416 5.2128 12.4608 4.9968 12.5598 4.6109 M 11.521 4.8658 C 10.325 3.9283 9.5792 2.6755 8.1101 1.7323 C 7.4052 2.2118 6.5498 2.9477 6.3452 4.1472 C 7.8408 4.6627 9.3416 4.608 11.1025 5.3222 C 11.29 5.3784 11.5381 5.2099 11.5223 4.8614 M 17.16 17.28 L 18.92 17.28 L 18.92 19.2 L 20.24 19.2 L 20.24 17.28 L 22 17.28 L 22 15.936 L 20.24 15.936 L 20.24 13.92 L 18.92 13.92 L 18.92 15.84 L 17.16 15.84 M 20.68 18.24 C 20.9669 18.1824 21.3462 17.9328 21.12 17.76 L 20.68 17.76" fill="#ffe031"/>
</svg>
