<?xml version="1.0" encoding="UTF-8" standalone="no"?>
<svg
   width="164"
   height="41"
   viewBox="0 0 164 41"
   fill="none"
   version="1.1"
   id="svg76"
   sodipodi:docname="kd-logo.svg"
   inkscape:version="1.2.2 (732a01da63, 2022-12-09)"
   xmlns:inkscape="http://www.inkscape.org/namespaces/inkscape"
   xmlns:sodipodi="http://sodipodi.sourceforge.net/DTD/sodipodi-0.dtd"
   xmlns="http://www.w3.org/2000/svg"
   xmlns:svg="http://www.w3.org/2000/svg">
  <defs
     id="defs80" />
  <sodipodi:namedview
     id="namedview78"
     pagecolor="#505050"
     bordercolor="#eeeeee"
     borderopacity="1"
     inkscape:showpageshadow="0"
     inkscape:pageopacity="0"
     inkscape:pagecheckerboard="0"
     inkscape:deskcolor="#505050"
     showgrid="false"
     inkscape:zoom="5.6568543"
     inkscape:cx="67.528697"
     inkscape:cy="18.915106"
     inkscape:window-width="1920"
     inkscape:window-height="1017"
     inkscape:window-x="-8"
     inkscape:window-y="-8"
     inkscape:window-maximized="1"
     inkscape:current-layer="svg76" />
  <path
     d="M 30.09626,10.6287 V 23.958 l 5.9339,-6.5734 h 4.0568 v 0.1826 l -6.9027,7.3646 7.8715,8.2775 v 0.2435 h -4.1174 l -6.8421,-7.4255 v 7.4255 h -3.3908 V 10.6287 Z"
     fill="#ffcb77"
     id="path42" />
  <path
     d="m 44.93096,26.636 c 0.3028,2.4346 2.3009,4.0171 5.2073,4.0171 1.6348,0 3.6935,-0.6087 4.6623,-1.7042 l 2.1798,2.1302 c -1.6348,1.8259 -4.4201,2.7389 -6.9027,2.7389 -5.2678,0 -8.6586,-3.3475 -8.6586,-8.521 0,-4.8692 3.3908,-8.3993 8.4164,-8.3993 5.0257,0 8.6587,3.165 8.0532,9.7383 z m 9.7485,-2.7998 c -0.1816,-2.5563 -2.0587,-3.8953 -4.7229,-3.8953 -2.422,0 -4.4201,1.339 -4.965,3.8953 z"
     fill="#ffcb77"
     id="path44" />
  <path
     d="M 76.11406,17.3845 66.00226,40.939 h -3.6935 l 3.3302,-7.6689 -6.4182,-15.8247 h 3.8751 l 2.7853,7.608 1.5743,4.5649 1.6954,-4.504 3.2092,-7.6689 h 3.754 z"
     fill="#ffcb77"
     id="path46" />
  <path
     d="m 94.40036,10.6287 v 22.8241 h -3.149 l -0.181,-2.5563 c -1.272,2.0694 -3.391,2.8606 -5.571,2.8606 -4.6624,0 -8.1743,-3.0432 -8.1743,-8.3993 0,-5.356 3.4514,-8.3992 8.1133,-8.3992 1.938,0 4.602,0.9738 5.632,2.8606 v -9.1905 z m -13.745,14.79 c 0,3.2258 2.2403,5.2343 5.086,5.2343 2.846,0 5.086,-2.0693 5.086,-5.2343 0,-3.1649 -2.301,-5.2343 -5.086,-5.2343 -2.8457,0 -5.086,1.8868 -5.086,5.2343 z"
     fill="#ffffff"
     id="path48" />
  <path
     d="m 102.02936,17.3847 0.242,2.1303 c 1.151,-2.0694 2.967,-2.4955 4.723,-2.4955 1.574,0 3.028,0.5478 3.936,1.3999 l -1.514,2.9215 c -0.787,-0.6695 -1.574,-0.9738 -2.846,-0.9738 -2.301,0 -4.299,1.4607 -4.299,4.3822 v 8.7036 h -3.33 V 17.3847 Z"
     fill="#ffffff"
     id="path50" />
  <path
     d="m 128.30836,25.4188 c 0,4.7474 -3.27,8.3384 -8.296,8.3384 -5.025,0 -8.235,-3.591 -8.235,-8.3384 0,-4.7474 3.27,-8.3993 8.235,-8.3993 4.965,0 8.296,3.6519 8.296,8.3993 z m -13.2,0 c 0,2.8606 1.877,5.2343 4.904,5.2343 3.028,0 4.905,-2.3737 4.905,-5.2343 0,-2.8606 -1.998,-5.2952 -4.905,-5.2952 -3.088,0 -4.904,2.4346 -4.904,5.2952 z"
     fill="#ffffff"
     id="path52" />
  <path
     d="M 131.81936,40.9392 V 17.3846 h 3.149 l 0.182,2.6172 c 1.211,-1.9476 3.512,-2.9215 5.631,-2.9215 4.783,0.0609 8.053,3.5302 8.053,8.3993 0,4.8692 -3.088,8.3993 -8.053,8.3993 -1.938,0 -4.42,-0.7304 -5.631,-2.678 V 41 h -3.331 z m 13.745,-15.5205 c 0,-3.0432 -1.998,-5.1126 -5.086,-5.1126 -3.088,0 -5.026,2.252 -5.026,5.1126 0,2.8607 2.12,5.1126 5.026,5.1126 2.967,0 5.086,-2.1302 5.086,-5.1126 z"
     fill="#ffffff"
     id="path54" />
  <path
     d="m 13.053671,18.593794 h -2.567509 v 3.505324 h 2.567509 z"
     fill="#ffcb77"
     id="path56"
     style="stroke-width:0.63289" />
  <path
     d="m 13.053671,23.98665 h -2.567509 v 9.437467 h 2.567509 z"
     fill="#ffcb77"
     id="path58"
     style="stroke-width:0.63289" />
  <path
     d="M 8.6467301,22.099182 H 2.668571 c -0.9580314,0 -1.76278305,-0.770418 -1.76278305,-1.771966 0,-0.963005 0.76643005,-1.771902 1.76278305,-1.771902 h 5.9781591 z"
     fill="#ffcb77"
     id="path60"
     style="stroke-width:0.63289" />
  <path
     d="m 8.6466665,33.424117 c -3.2189734,0 -5.824822,-2.619405 -5.824822,-5.85512 V 23.98665 h 5.824822 z"
     fill="#ffcb77"
     id="path62"
     style="stroke-width:0.63289" />
  <path
     d="m 14.893102,22.099182 h 5.978153 c 0.958006,0 1.762789,-0.770418 1.762789,-1.771966 0,-0.963005 -0.76643,-1.771902 -1.762789,-1.771902 h -5.978153 z"
     fill="#ffcb77"
     id="path64"
     style="stroke-width:0.63289" />
  <path
     d="m 14.893102,33.424117 c 3.219005,0 5.824868,-2.619405 5.824868,-5.85512 V 23.98665 h -5.824868 z"
     fill="#ffcb77"
     id="path66"
     style="stroke-width:0.63289" />
  <path
     d="M 10.256233,16.898851 4.4313783,15.242489 C 4.0098423,15.126923 3.9331992,14.510595 4.2780921,14.279476 l 3.9854236,-2.811994 c 0.268218,-0.192601 0.6131438,-0.07704 0.7280766,0.231119 l 1.8777847,4.429833 c 0.153285,0.423719 -0.19164,0.885982 -0.613144,0.770417 z"
     fill="#ffcb77"
     id="path68"
     style="stroke-width:0.63289" />
  <path
     d="m 12.478817,16.244062 3.410644,-6.7795875 c 0.191575,-0.3852043 0.689787,-0.3852043 0.881362,-0.038524 l 3.410645,5.7395485 c 0.191576,0.346685 0,0.770404 -0.344925,0.808948 l -6.821226,1.078571 c -0.421505,0.03848 -0.728076,-0.42372 -0.5365,-0.80896 z"
     fill="#ffcb77"
     id="path70"
     style="stroke-width:0.63289" />
  <rect
     style="fill:#ffffff"
     id="rect292"
     width="12.495073"
     height="3.1354678"
     x="151.43842"
     y="23.773397" />
  <rect
     style="fill:#ffffff"
     id="rect292-5"
     width="12.495073"
     height="3.1354678"
     x="18.987877"
     y="-159.28477"
     transform="rotate(90)" />
</svg>
